<?xml version="1.0" encoding="iso-8859-1"?>
<!-- Generator: Adobe Illustrator 18.0.0, SVG Export Plug-In . SVG Version: 6.00 Build 0)  -->
<!DOCTYPE svg PUBLIC "-//W3C//DTD SVG 1.1//EN" "http://www.w3.org/Graphics/SVG/1.1/DTD/svg11.dtd">
<svg version="1.1" id="Capa_1" xmlns="http://www.w3.org/2000/svg" xmlns:xlink="http://www.w3.org/1999/xlink" x="0px" y="0px"
	 viewBox="0 0 297 297" style="enable-background:new 0 0 297 297;" xml:space="preserve">
<path d="M280.66,143.143l-33.018-49.862c-1.854-2.799-4.986-4.48-8.343-4.48h-14.034l38.798-56.629
	c3.123-4.56,1.959-10.787-2.599-13.91c-4.561-3.124-10.786-1.959-13.91,2.599l-46.548,67.94h-13.348l28.001-75.307
	c1.926-5.18-0.712-10.939-5.892-12.865c-5.18-1.923-10.939,0.712-12.865,5.891L166.31,88.801H57.7c-3.356,0-6.489,1.682-8.343,4.48
	l-33.019,49.862c-2.034,3.072-2.215,7.014-0.472,10.26c1.744,3.246,5.13,5.27,8.814,5.27h28.226l11.334,129.195
	c0.454,5.166,4.78,9.131,9.968,9.131h148.582c5.188,0,9.514-3.965,9.967-9.131l11.335-129.195h28.226c3.685,0,7.07-2.024,8.814-5.27
	C282.876,150.157,282.694,146.216,280.66,143.143z M152.452,224.577l51.945,52.411H93.49L152.452,224.577z M167.432,211.264
	l56.353-50.093l-8.619,98.255L167.432,211.264z M81.928,260.493l-8.932-101.819h123.478L81.928,260.493z M233.925,108.811
	l19.768,29.851H43.308l19.768-29.851H233.925z"/>
<g>
</g>
<g>
</g>
<g>
</g>
<g>
</g>
<g>
</g>
<g>
</g>
<g>
</g>
<g>
</g>
<g>
</g>
<g>
</g>
<g>
</g>
<g>
</g>
<g>
</g>
<g>
</g>
<g>
</g>
</svg>
